<mxfile host="app.diagrams.net" modified="2021-03-08T16:30:16.695Z" agent="5.0 (Macintosh)" etag="HCRcZ7ZstRX8qGhvd3Fj" version="14.4.4" type="github">
  <diagram name="Page-1" id="e7e014a7-5840-1c2e-5031-d8a46d1fe8dd">
    <mxGraphModel dx="2032" dy="786" grid="1" gridSize="10" guides="1" tooltips="1" connect="1" arrows="1" fold="1" page="1" pageScale="1" pageWidth="827" pageHeight="1169" background="#ffffff" math="0" shadow="0">
      <root>
        <mxCell id="0" />
        <mxCell id="1" parent="0" />
        <mxCell id="eq0AmHojWDZqGbPDtvXn-58" value="" style="group" vertex="1" connectable="0" parent="1">
          <mxGeometry x="40" y="60" width="280" height="280" as="geometry" />
        </mxCell>
        <mxCell id="eq0AmHojWDZqGbPDtvXn-49" value="&lt;b&gt;Radio Tracker&lt;/b&gt;" style="rounded=0;whiteSpace=wrap;html=1;fillColor=#ffffff;" vertex="1" parent="eq0AmHojWDZqGbPDtvXn-58">
          <mxGeometry x="100" y="220" width="80" height="40" as="geometry" />
        </mxCell>
        <mxCell id="eq0AmHojWDZqGbPDtvXn-47" value="&lt;b&gt;Sensor(s)&lt;/b&gt;" style="rounded=0;whiteSpace=wrap;html=1;fillColor=#ffffff;horizontal=0;" vertex="1" parent="eq0AmHojWDZqGbPDtvXn-58">
          <mxGeometry x="20" y="100" width="40" height="80" as="geometry" />
        </mxCell>
        <mxCell id="eq0AmHojWDZqGbPDtvXn-48" value="&lt;b&gt;GPS&lt;/b&gt;" style="rounded=0;whiteSpace=wrap;html=1;fillColor=#ffffff;" vertex="1" parent="eq0AmHojWDZqGbPDtvXn-58">
          <mxGeometry x="100" y="20" width="80" height="40" as="geometry" />
        </mxCell>
        <mxCell id="eq0AmHojWDZqGbPDtvXn-50" value="&lt;b&gt;Data Log&lt;/b&gt;" style="rounded=0;whiteSpace=wrap;html=1;fillColor=#ffffff;horizontal=0;rotation=-180;" vertex="1" parent="eq0AmHojWDZqGbPDtvXn-58">
          <mxGeometry x="220" y="100" width="40" height="80" as="geometry" />
        </mxCell>
        <mxCell id="eq0AmHojWDZqGbPDtvXn-54" style="edgeStyle=orthogonalEdgeStyle;rounded=0;orthogonalLoop=1;jettySize=auto;html=1;exitX=1;exitY=0.5;exitDx=0;exitDy=0;entryX=1;entryY=0.5;entryDx=0;entryDy=0;" edge="1" parent="eq0AmHojWDZqGbPDtvXn-58" source="eq0AmHojWDZqGbPDtvXn-51" target="eq0AmHojWDZqGbPDtvXn-50">
          <mxGeometry relative="1" as="geometry" />
        </mxCell>
        <mxCell id="eq0AmHojWDZqGbPDtvXn-55" style="edgeStyle=orthogonalEdgeStyle;rounded=0;orthogonalLoop=1;jettySize=auto;html=1;exitX=0.5;exitY=1;exitDx=0;exitDy=0;entryX=0.5;entryY=0;entryDx=0;entryDy=0;" edge="1" parent="eq0AmHojWDZqGbPDtvXn-58" source="eq0AmHojWDZqGbPDtvXn-51" target="eq0AmHojWDZqGbPDtvXn-49">
          <mxGeometry relative="1" as="geometry" />
        </mxCell>
        <mxCell id="eq0AmHojWDZqGbPDtvXn-51" value="Controller" style="whiteSpace=wrap;html=1;aspect=fixed;fillColor=#ffffff;fontStyle=1" vertex="1" parent="eq0AmHojWDZqGbPDtvXn-58">
          <mxGeometry x="100" y="100" width="80" height="80" as="geometry" />
        </mxCell>
        <mxCell id="eq0AmHojWDZqGbPDtvXn-52" style="edgeStyle=orthogonalEdgeStyle;rounded=0;orthogonalLoop=1;jettySize=auto;html=1;exitX=1;exitY=0.5;exitDx=0;exitDy=0;entryX=0;entryY=0.5;entryDx=0;entryDy=0;" edge="1" parent="eq0AmHojWDZqGbPDtvXn-58" source="eq0AmHojWDZqGbPDtvXn-47" target="eq0AmHojWDZqGbPDtvXn-51">
          <mxGeometry relative="1" as="geometry" />
        </mxCell>
        <mxCell id="eq0AmHojWDZqGbPDtvXn-53" style="edgeStyle=orthogonalEdgeStyle;rounded=0;orthogonalLoop=1;jettySize=auto;html=1;exitX=0.5;exitY=1;exitDx=0;exitDy=0;entryX=0.5;entryY=0;entryDx=0;entryDy=0;" edge="1" parent="eq0AmHojWDZqGbPDtvXn-58" source="eq0AmHojWDZqGbPDtvXn-48" target="eq0AmHojWDZqGbPDtvXn-51">
          <mxGeometry relative="1" as="geometry" />
        </mxCell>
        <mxCell id="eq0AmHojWDZqGbPDtvXn-57" value="Flight Computer" style="rounded=0;whiteSpace=wrap;html=1;fillColor=none;dashed=1;verticalAlign=top;align=left;labelPosition=center;verticalLabelPosition=middle;spacingTop=-23;fontStyle=1;fontSize=14;" vertex="1" parent="eq0AmHojWDZqGbPDtvXn-58">
          <mxGeometry width="280" height="280" as="geometry" />
        </mxCell>
        <mxCell id="eq0AmHojWDZqGbPDtvXn-59" value="" style="shape=mxgraph.cisco.wireless.antenna;html=1;pointerEvents=1;dashed=0;fillColor=#036897;strokeColor=#ffffff;strokeWidth=2;verticalLabelPosition=bottom;verticalAlign=top;align=center;outlineConnect=0;fontSize=14;" vertex="1" parent="1">
          <mxGeometry x="480" y="400" width="60" height="60" as="geometry" />
        </mxCell>
        <mxCell id="eq0AmHojWDZqGbPDtvXn-61" value="" style="shape=mxgraph.cisco.wireless.antenna;html=1;pointerEvents=1;dashed=0;fillColor=#036897;strokeColor=#ffffff;strokeWidth=2;verticalLabelPosition=bottom;verticalAlign=top;align=center;outlineConnect=0;fontSize=14;" vertex="1" parent="1">
          <mxGeometry x="200" y="400" width="60" height="60" as="geometry" />
        </mxCell>
      </root>
    </mxGraphModel>
  </diagram>
</mxfile>
